# xmcd
#
# Track frame offsets:
#	150
#	12010
#	28062
#	37758
#	54207
#	64559
#	82996
#	97124
#	113412
#	124926
#	138762
#	153734
#
# Disc length: 2305 seconds
#
# Revision: 91817340
# Processed by: cddbd v1.5.2PL0 Copyright (c) Steve Scherf et al.
# Submitted via: EZCDAudioConverter 8.0.7.1
#
DISCID=8808ff0c
DTITLE=Mike Love - Reason For The Season
DYEAR=2018
DGENRE=Christmas
TTITLE0=Mike Love - Celestial Celebration
TTITLE1=Mike Love Feat. Hanson - Finally It's Christmas
TTITLE2=Mike Love - Little St. Nick
TTITLE3=Mike Love - Must Be Christmas
TTITLE4=Mike Love Feat. Ambha Love and Christian Love - Jingle Bell Rock
TTITLE5=Mike Love - Alone On Christmas Day
TTITLE6=Mike Love - Reason For The Season
TTITLE7=Mike Love Feat. All Love - Do You Hear What I Hear
TTITLE8=Mike Love Feat. All Love - Away In A Manger
TTITLE9=Mike Love Feat. Hayleigh Love and Brian Love - Bring A Torch
TTITLE10=Mike Love Feat. All Love - O Come All Ye Faithful
TTITLE11=Mike Love Feat. All Love - O Holy Night
EXTD=
EXTT0=
EXTT1=
EXTT2=
EXTT3=
EXTT4=
EXTT5=
EXTT6=
EXTT7=
EXTT8=
EXTT9=
EXTT10=
EXTT11=
PLAYORDER=
